<?xml version="1.0" encoding="UTF-8"?>
<svg version="1.1" viewBox="0 0 2048 1600" width="3677" height="2873" xmlns="http://www.w3.org/2000/svg">
<path transform="translate(1232,59)" d="m0 0h31l21 3 22 6 21 9 18 10 17 13 13 12 569 569 11 14 9 14 12 23 10 33 3 24v22l-3 24-10 33-9 17-9 16-11 14-12 13-566 566-11 9-12 9-19 11-19 8-20 6-17 3-10 1h-27l-22-3-22-6-19-8-17-9-14-10-11-9-16-16-13-17-11-19-9-21-6-21-3-19-1-21 1-18 4-23 9-27 10-20 8-12 10-13 14-15 256-256-1182-1-20-3-22-6-21-9-16-9-14-10-10-9-8-7-9-10-13-18-9-16-7-15-6-18-4-19-2-20v-16l2-20 4-19 6-18 7-16 10-17 13-17 14-15 13-11 18-12 19-10 22-8 17-4 15-2 1183-1-264-264-9-11-10-13-10-18-7-15-6-19-4-19-2-23 1-23 3-19 6-21 8-19 8-15 10-14 9-11 18-18 16-12 21-12 20-8 21-6z"/>
</svg>
