<?xml version="1.0" encoding="UTF-8"?>
<svg version="1.1" viewBox="0 0 2048 2048" width="512" height="512" xmlns="http://www.w3.org/2000/svg">
<path transform="translate(1007,1523)" d="m0 0h30l28 3 25 5 27 9 18 8 23 13 17 12 10 8 10 9 12 11 9 10 13 17 10 15 10 18 8 17 7 19 6 23 4 22 1 9 1 31-2 25-4 23-6 22-9 24-8 16-10 18-10 14-10 13-12 13-13 13-11 9-12 9-19 12-21 11-20 8-23 7-26 5-15 2h-43l-28-4-30-8-21-8-24-12-20-13-13-10-14-12-15-15-9-11-13-17-12-20-8-16-7-16-6-18-6-25-3-21-1-12v-27l3-26 5-24 7-23 9-21 10-19 10-16 10-13 8-10 11-12 9-9 11-9 17-13 20-12 15-8 25-10 24-7 30-5z" fill="#010102"/>
<path transform="translate(1010,772)" d="m0 0h22l26 2 22 4 25 7 25 10 21 11 18 12 12 9 14 12 17 17 9 11 12 16 8 13 9 16 10 23 8 26 5 24 2 17v45l-3 22-6 26-8 23-9 20-10 18-11 16-7 9-13 15-17 17-14 11-11 8-16 10-25 13-21 8-26 7-24 4-10 1h-42l-22-3-19-4-23-7-21-9-25-13-16-11-14-11-15-14-11-11-9-11-10-13-12-19-10-19-8-20-5-15-5-21-4-23-1-10v-29l2-22 4-22 7-25 10-25 11-21 11-17 9-12 9-11 5-6h2l2-4 8-8 11-9 12-10 15-10 16-9 16-8 20-8 25-7 22-4z" fill="#010102"/>
<path transform="translate(1010,21)" d="m0 0h24l23 2 23 4 25 7 25 10 21 11 17 11 17 13 15 14 14 14 11 14 10 14 9 15 8 16 7 16 8 24 5 22 3 22 1 25-2 30-5 27-7 24-9 22-8 16-10 17-11 15-9 11-11 12-11 11-8 7-12 9-18 12-16 9-19 9-30 10-29 6-18 2h-41l-22-3-23-5-27-9-22-10-22-13-18-13-15-13-18-18-9-11-11-15-11-18-8-15-10-25-6-18-5-25-3-27v-26l2-21 5-26 6-21 6-16 11-23 12-20 12-16 11-13 11-12 12-11 14-11 13-9 15-9 15-8 25-10 21-6 26-5z" fill="#010102"/>
</svg>
